<?xml version="1.0" ?><svg width="24px" height="24px" viewBox="0 0 24 24" data-name="025_SCIENCE" id="_025_SCIENCE" xmlns="http://www.w3.org/2000/svg"><defs><style>.cls-1{fill:#333;}</style></defs><path class="cls-1" d="M20,8H8A3,3,0,0,1,8,2H20a1,1,0,0,1,1,1V7A1,1,0,0,1,20,8ZM8,4A1,1,0,0,0,8,6H19V4Z"/><path class="cls-1" d="M19,22H5a3,3,0,0,1,0-6H19a1,1,0,0,1,1,1v4A1,1,0,0,1,19,22ZM5,18a1,1,0,0,0,0,2H18V18Z"/><path class="cls-1" d="M17,12H5A3,3,0,0,1,5,6H17a1,1,0,0,1,0,2H5a1,1,0,0,0,0,2H17a1,1,0,0,1,0,2Z"/><path class="cls-1" d="M21,18H10a4,4,0,0,1,0-8H21a1,1,0,0,1,0,2H10a2,2,0,0,0,0,4H20V14a1,1,0,0,1,2,0v3A1,1,0,0,1,21,18Z"/></svg>